<svg width="12892" height="2355" viewBox="0 0 12892 2355" fill="none" xmlns="http://www.w3.org/2000/svg">
<path d="M3094.13 1831.91C3062.11 1865.39 3016.95 1882.1 2958.66 1882.1C2900.37 1882.1 2855.26 1865.39 2823.2 1831.91C2791.13 1798.43 2775.17 1751.15 2775.17 1689.99V904.161H2590.83C2541.77 904.161 2502.55 891.307 2473.12 865.645C2443.69 839.983 2429 804.056 2429 757.911C2429 711.766 2443.41 675.839 2472.27 650.177C2501.13 624.515 2540.64 611.66 2590.83 611.66H3326.44C3376.64 611.66 3416.14 624.515 3445 650.177C3473.87 675.839 3488.28 711.766 3488.28 757.911C3488.28 804.056 3473.59 839.983 3444.16 865.645C3414.73 891.307 3375.51 904.161 3326.44 904.161H3142.11V1689.99C3142.11 1751.15 3126.1 1798.48 3094.08 1831.91H3094.13Z" fill="white"/>
<path d="M3919.44 1884.74C3763.07 1884.74 3640.74 1840.76 3552.5 1752.75C3464.22 1664.8 3420.1 1543.17 3420.1 1387.98C3420.1 1232.78 3463.93 1108 3551.65 1017.12C3639.33 926.245 3758.22 880.807 3908.23 880.807C4058.24 880.807 4171.91 922.478 4261.32 1005.87C4350.74 1089.26 4395.47 1196.14 4395.47 1326.53C4395.47 1369.23 4383.65 1401.82 4359.97 1424.33C4336.28 1446.83 4302.57 1458.09 4258.69 1458.09H3761.94V1480.59C3761.94 1527.35 3777.24 1565.82 3807.8 1596.14C3838.36 1626.42 3877.3 1641.58 3924.62 1641.58C3963.27 1641.58 3997.74 1635.23 4028.01 1622.56C4058.29 1609.89 4090.45 1588.52 4124.49 1558.52C4142.95 1542.37 4160.09 1530.98 4176 1524.34C4191.87 1517.7 4210.75 1514.4 4232.69 1514.4C4268.48 1514.4 4299.04 1525.37 4324.42 1547.32C4349.8 1569.26 4362.51 1598.36 4362.51 1634.71C4362.51 1661.83 4354.74 1687.82 4339.15 1712.59C4307.42 1765.7 4253.93 1807.66 4178.59 1838.5C4103.3 1869.34 4016.9 1884.78 3919.39 1884.78L3919.44 1884.74ZM3767.12 1265.93H4064.84C4061.96 1223.22 4046.8 1189.03 4019.4 1163.37C3991.99 1137.71 3957.53 1124.86 3916 1124.86C3874.47 1124.86 3841.56 1138.13 3813.87 1164.69C3786.19 1191.25 3770.6 1225.01 3767.12 1265.93Z" fill="white"/>
<path d="M4892.31 1874.33C4774.6 1874.33 4683.16 1830.92 4617.94 1744.09C4552.73 1657.26 4520.15 1535.92 4520.15 1380.16C4520.15 1224.4 4553.49 1106.82 4620.11 1020.56C4686.74 934.296 4779.49 891.165 4898.34 891.165C4966.42 891.165 5025.42 908.352 5075.33 942.678C5125.24 977.004 5159.71 1021.88 5178.73 1077.25H5185.65V773.449C5185.65 712.849 5201.66 667.128 5233.68 636.286C5265.7 605.444 5308.83 590 5363.07 590C5417.31 590 5460.44 605.444 5492.46 636.286C5524.48 667.175 5540.49 713.178 5540.49 774.344V1698.65C5540.49 1759.25 5524.48 1804.97 5492.46 1835.81C5460.44 1866.66 5417.31 1882.1 5363.07 1882.1C5308.83 1882.1 5265.7 1866.66 5233.68 1835.81C5201.66 1804.97 5185.65 1759.2 5185.65 1698.65V1695.17H5178.73C5161.97 1746.54 5127.5 1789.2 5075.33 1823.24C5023.11 1857.29 4962.09 1874.28 4892.26 1874.28L4892.31 1874.33ZM4923.48 1543.31C4949.99 1581.69 4987.23 1600.85 5035.12 1600.85C5083.01 1600.85 5120.34 1581.83 5147.18 1543.74C5174.02 1505.64 5187.44 1452.29 5187.44 1383.64C5187.44 1314.99 5173.88 1261.31 5146.76 1222.65C5119.64 1184 5082.39 1164.69 5035.12 1164.69C4987.85 1164.69 4950.74 1184.18 4923.9 1223.12C4897.07 1262.07 4883.65 1315.32 4883.65 1382.8C4883.65 1450.27 4896.92 1504.98 4923.48 1543.36V1543.31Z" fill="white"/>
<path d="M6062.47 1874.33C5944.76 1874.33 5853.32 1830.92 5788.11 1744.09C5722.89 1657.26 5690.31 1535.92 5690.31 1380.16C5690.31 1224.4 5723.65 1106.82 5790.27 1020.56C5856.9 934.296 5949.66 891.165 6068.5 891.165C6136.58 891.165 6195.58 908.352 6245.49 942.678C6295.4 977.004 6329.87 1021.88 6348.89 1077.25H6355.81V773.449C6355.81 712.849 6371.82 667.128 6403.84 636.286C6435.86 605.444 6478.99 590 6533.23 590C6587.47 590 6630.6 605.444 6662.62 636.286C6694.64 667.175 6710.65 713.178 6710.65 774.344V1698.65C6710.65 1759.25 6694.64 1804.97 6662.62 1835.81C6630.6 1866.66 6587.47 1882.1 6533.23 1882.1C6478.99 1882.1 6435.86 1866.66 6403.84 1835.81C6371.82 1804.97 6355.81 1759.2 6355.81 1698.65V1695.17H6348.89C6332.18 1746.54 6297.66 1789.2 6245.49 1823.24C6193.28 1857.29 6132.25 1874.28 6062.43 1874.28L6062.47 1874.33ZM6093.64 1543.31C6120.15 1581.69 6157.4 1600.85 6205.28 1600.85C6253.17 1600.85 6290.55 1581.83 6317.34 1543.74C6344.18 1505.64 6357.6 1452.29 6357.6 1383.64C6357.6 1314.99 6344.04 1261.31 6316.92 1222.65C6289.8 1184 6252.6 1164.69 6205.28 1164.69C6157.96 1164.69 6120.9 1184.18 6094.07 1223.12C6067.23 1262.07 6053.81 1315.32 6053.81 1382.8C6053.81 1450.27 6067.09 1504.98 6093.64 1543.36V1543.31Z" fill="white"/>
<path d="M7110.64 2211C7036.76 2211 6980.4 2197.16 6941.46 2169.47C6902.52 2141.78 6883.03 2101.66 6883.03 2049.16C6883.03 2014.55 6894.28 1987.43 6916.79 1967.8C6939.29 1948.16 6969.85 1938.37 7008.51 1938.37C7012.56 1938.37 7018.73 1938.51 7027.11 1938.79C7035.49 1939.07 7041.66 1939.22 7045.71 1939.22C7090.72 1939.22 7123.02 1931.12 7142.66 1914.97L7146.99 1911.48L6865.7 1157.67C6851.29 1119.58 6844.04 1083.23 6844.04 1048.62C6844.04 1001.3 6861.79 961.935 6897.25 930.482C6932.75 899.028 6977.01 883.301 7030.07 883.301C7078.53 883.301 7115.77 894.555 7141.71 917.062C7167.66 939.569 7187.86 977.662 7202.31 1031.29L7356.38 1605.98H7363.3L7517.36 1027.86C7530.64 978.227 7551.26 941.735 7579.23 918.38C7607.2 895.025 7644.25 883.348 7690.45 883.348C7741.2 883.348 7782.64 898.227 7814.66 927.939C7846.67 957.65 7862.68 995.602 7862.68 1041.75C7862.68 1075.79 7855.76 1112.14 7841.92 1150.8L7604.8 1829.32C7556.91 1965.49 7494.71 2063.15 7418.29 2122.29C7341.83 2181.43 7239.27 2211 7110.64 2211Z" fill="white"/>
<path d="M8512.74 1882.1C8379.44 1882.1 8270.39 1861.34 8185.59 1819.8C8100.79 1778.27 8043.96 1724.6 8015.1 1658.82C8002.38 1631.13 7996.07 1602.27 7996.07 1572.27C7996.07 1528.43 8010.91 1492.65 8040.66 1464.96C8070.37 1437.27 8108 1423.43 8153.62 1423.43C8189.41 1423.43 8219.82 1430.07 8244.92 1443.35C8270.02 1456.63 8294.69 1480.26 8318.89 1514.31C8359.29 1571.99 8425.35 1600.85 8517.07 1600.85C8571.31 1600.85 8614.44 1590.92 8646.46 1571C8678.48 1551.08 8694.49 1525.56 8694.49 1494.39C8694.49 1465.53 8680.79 1443.35 8653.38 1427.76C8625.98 1412.18 8576.78 1398.05 8505.82 1385.34L8380.34 1362.83C8255.7 1340.89 8160.5 1298.93 8094.72 1236.92C8028.94 1174.91 7996.07 1095.71 7996.07 999.37C7996.07 917.439 8018.16 845.162 8062.28 782.584C8106.39 720.006 8167.28 672.26 8244.87 639.347C8322.47 606.48 8410.61 590 8509.26 590C8633.28 590 8737.85 611.048 8822.98 653.19C8908.07 695.333 8966.78 755.321 8999.08 833.202C9009.49 858.016 9014.67 883.678 9014.67 910.235C9014.67 951.766 9000.68 985.385 8972.72 1011.05C8944.7 1036.71 8907.93 1049.85 8862.35 1050.41C8823.13 1050.41 8790.21 1043.21 8763.7 1028.8C8737.15 1014.39 8712.95 990.424 8691 956.945C8653.48 899.829 8594.34 871.248 8513.59 871.248C8464.52 871.248 8426.62 880.759 8399.78 899.829C8372.94 918.852 8359.52 943.102 8359.52 972.531C8359.52 1000.22 8373.23 1021.88 8400.63 1037.46C8428.03 1053.05 8473.75 1066.61 8537.79 1078.15L8663.27 1100.65C8798.26 1124.9 8897.8 1166.01 8961.84 1223.97C9025.88 1281.94 9057.89 1361.14 9057.89 1461.52C9057.89 1591.34 9009.72 1693.9 8913.34 1769.19C8816.96 1844.48 8683.42 1882.15 8512.65 1882.15L8512.74 1882.1Z" fill="white"/>
<path d="M9584.26 1882.1C9521.96 1882.1 9473.18 1866.94 9438.01 1836.66C9402.79 1806.38 9375.39 1757.46 9355.8 1689.94L9201.74 1151.6C9187.33 1101.41 9180.12 1062.47 9180.12 1034.78C9180.12 990.941 9196.28 954.731 9228.58 926.15C9260.88 897.568 9301.56 883.301 9350.62 883.301C9395.02 883.301 9431.98 896.862 9461.41 923.984C9490.84 951.106 9510.15 988.586 9519.42 1036.47L9617.22 1549.72H9624.14L9721.94 1047.73C9732.34 994.661 9754.38 953.978 9788.14 925.679C9821.9 897.427 9865.59 883.254 9919.27 883.254C9972.95 883.254 10015.9 897.38 10049.9 925.679C10084 953.978 10106.2 994.896 10116.6 1048.57L10215.2 1549.67H10222.1L10320.8 1032.99C10329.4 986.844 10348.3 950.352 10377.5 923.513C10406.6 896.674 10442.8 883.254 10486.1 883.254C10534 883.254 10573.5 897.38 10604.6 925.679C10635.8 953.978 10651.4 989.434 10651.4 1032.14C10651.4 1058.7 10644.5 1097.07 10630.6 1147.27L10476.6 1688.2C10457.5 1756.28 10429.9 1805.63 10393.5 1836.19C10357.1 1866.75 10307.2 1882.05 10243.7 1882.05C10176.2 1882.05 10124.1 1866.61 10087.5 1835.77C10050.9 1804.92 10025 1755.15 10010 1686.46L9914.84 1245.07H9907.92L9813.56 1689.94C9799.15 1757.46 9773.87 1806.34 9737.85 1836.66C9701.78 1866.94 9650.55 1882.1 9584.26 1882.1Z" fill="white"/>
<path d="M11066.9 1874.33C10978 1874.33 10902.1 1846.79 10839.3 1791.69C10776.4 1736.6 10745 1666.92 10745 1582.68C10745 1491.52 10778.9 1420.98 10846.7 1371.07C10914.5 1321.16 11012.7 1292.15 11141.4 1284.1L11350.8 1271.11V1224.35C11350.8 1193.18 11340.1 1168.98 11318.8 1151.65C11297.5 1134.32 11269.7 1125.7 11235.7 1125.7C11208.6 1125.7 11185.5 1130.46 11166.5 1139.97C11147.4 1149.48 11122.3 1168.41 11091.2 1196.66C11049.6 1234.76 11003.2 1253.78 10951.8 1253.78C10909.7 1253.78 10875.2 1242.1 10848.5 1218.75C10821.6 1195.39 10808.2 1165.26 10808.2 1128.29C10808.2 1108.71 10810.5 1091.1 10815.1 1075.51C10833 1014.34 10881 966.598 10959.2 932.272C11037.4 897.946 11135.9 880.76 11254.7 880.76C11386.9 880.76 11493.6 910.895 11575 971.213C11656.3 1031.53 11697 1110.12 11697 1207.07V1703.83C11697 1763.25 11681.2 1807.85 11649.4 1837.56C11617.7 1867.27 11575 1882.15 11521.3 1882.15C11472.9 1882.15 11433.6 1869.72 11403.6 1844.95C11373.6 1820.14 11356 1782.65 11350.8 1732.46H11343.9C11319.7 1777.47 11282.1 1812.37 11231 1837.18C11179.9 1862 11125.2 1874.38 11067 1874.38L11066.9 1874.33ZM11199.3 1637.2C11240.2 1637.2 11275.7 1626.7 11305.7 1605.61C11335.7 1584.56 11350.8 1557.02 11350.8 1522.97V1460.68L11200.2 1471.08C11166.7 1473.39 11140.8 1482.05 11122.3 1497.03C11103.8 1512.05 11094.6 1531.35 11094.6 1555.04C11094.6 1580.42 11104.1 1600.48 11123.2 1615.17C11142.2 1629.86 11167.6 1637.25 11199.3 1637.25L11199.3 1637.2Z" fill="white"/>
<path d="M12177.8 2158.64C12145.7 2189.48 12102.6 2204.93 12048.4 2204.93C11994.1 2204.93 11951 2189.48 11919 2158.64C11887 2127.75 11871 2082.03 11871 2021.48V1066.85C11871 1006.25 11887 960.524 11919 929.682C11951 898.841 11994.1 883.396 12048.4 883.396C12102.6 883.396 12145.9 898.841 12178.2 929.682C12210.5 960.571 12226.6 1006.57 12226.6 1067.74V1077.25H12232.7C12255.8 1018.39 12292 972.672 12341.3 940.089C12390.7 907.505 12449.3 891.166 12517.4 891.166C12637.5 891.166 12729.7 933.591 12794.4 1018.39C12859 1103.2 12891.3 1224.68 12891.3 1382.75C12891.3 1540.82 12859.3 1661.59 12795.3 1746.68C12731.2 1831.81 12640.1 1874.33 12521.8 1874.33C12452 1874.33 12392 1858.6 12341.8 1827.15C12291.6 1795.7 12255.3 1751.72 12232.8 1695.17H12225.8V2021.43C12225.8 2082.03 12209.8 2127.75 12177.8 2158.59L12177.8 2158.64ZM12265.6 1542.42C12292.7 1581.36 12329.7 1600.85 12376.4 1600.85C12423.2 1600.85 12460.1 1581.27 12487.2 1542C12514.3 1502.77 12527.9 1449.71 12527.9 1382.75C12527.9 1315.79 12514.2 1263.48 12486.8 1223.93C12459.4 1184.42 12422.6 1164.64 12376.4 1164.64C12330.2 1164.64 12293.4 1184.42 12266.1 1223.93C12238.7 1263.43 12224.7 1316.69 12224.1 1383.6C12224.7 1450.55 12238.5 1503.48 12265.6 1542.42Z" fill="white"/>
<path d="M486.471 679.582C486.471 679.582 342.061 860.394 128.246 759.582C128.246 759.582 -117.256 635.132 71.085 352.095C71.085 352.095 215.495 151.366 389.522 272.143C389.522 272.143 591 399.276 538.218 582.254L486.471 679.582Z" fill="#C69C6D"/>
<path d="M1386.32 509.083C1386.32 509.083 1590.81 617.382 1746.75 439.724C1746.75 439.724 1922.34 227.741 1636.81 43.2089C1636.81 43.2089 1424.41 -83.3595 1312.91 96.7463C1312.91 96.7463 1178.81 293.615 1300.1 440.431L1386.32 509.083Z" fill="#C69C6D"/>
<path d="M387.262 600.572C387.262 600.572 316.964 688.577 212.906 639.513C212.906 639.513 93.4035 578.96 185.078 441.185C185.078 441.185 255.377 343.48 340.083 402.244C340.083 402.244 438.114 464.116 412.453 553.156L387.262 600.525V600.572Z" fill="#F8EBC9"/>
<path d="M1458.4 388.307C1458.4 388.307 1557.94 440.997 1633.84 354.546C1633.84 354.546 1719.3 251.379 1580.31 161.585C1580.31 161.585 1476.91 99.9962 1422.67 187.671C1422.67 187.671 1357.41 283.492 1416.45 354.922L1458.4 388.354V388.307Z" fill="#F8EBC9"/>
<path d="M733.01 1260.68C733.01 1260.68 544.669 1550.45 533.887 1730.37C533.887 1730.37 456.196 1714.45 413.113 1715.49C413.113 1715.49 272.422 1528.41 102.539 1650.32C102.539 1650.32 -63.8132 1768.22 28.6621 2009.73C28.6621 2009.73 140.913 2326.24 475.171 2306.04C475.171 2306.04 550.931 2299.97 601.171 2261.83C601.171 2261.83 522.869 2273.08 814.044 2234.94C814.044 2234.94 1084.92 2228.4 1403.55 2234.47C1498.8 2236.31 1583.6 2271.81 1732.16 2270.16C1732.16 2270.16 2013.26 2364.62 2137.56 1973.9C2137.56 1973.9 2198.91 1789.22 2028.32 1655.83C2028.32 1655.83 1905.48 1573.38 1768.79 1730.79C1768.79 1730.79 1684.88 1730.88 1649.67 1741.1C1649.67 1741.1 1567.41 1435.84 1492.92 1311.86L733.057 1260.68H733.01Z" fill="#C69C6D"/>
<path d="M808.958 1544.66L761.402 1982.8C761.402 1982.8 1055.97 2145.72 1468.62 1961.84L1376.19 1478.64C1376.19 1478.64 1052.53 1586.04 808.958 1544.61V1544.66Z" fill="#F8EBC9"/>
<path d="M612.424 1500.91C612.424 1500.91 491.133 2029.74 739.978 2284.81C739.978 2284.81 822.33 2376.63 962.597 2349.83C962.597 2349.83 1076.5 2318.62 1081.02 2217.1C1087.47 2071.79 964.48 1999.13 910.097 1847.37C910.097 1847.37 830.523 1618.35 865.884 1531.66L612.424 1500.91Z" fill="#C69C6D"/>
<path d="M1489.53 1399.91C1489.53 1399.91 1744.45 1948.71 1541.84 2241.82C1541.84 2241.82 1476.01 2346.12 1333.25 2343.2C1333.25 2343.2 1215.73 2331.47 1194.3 2232.12C1163.6 2089.92 1269.59 2018.68 1300.9 1838.99C1300.9 1838.99 1327.6 1710.45 1279.57 1478.64L1489.57 1399.87L1489.53 1399.91Z" fill="#C69C6D"/>
<path d="M1146.94 1521.11C1146.94 1521.11 511.144 1703.48 302.839 1227.67C302.839 1227.67 106.353 765.28 506.718 389.765C506.718 389.765 877.986 70.4713 1264.18 238.994C1264.18 238.994 1679.47 388.541 1757.82 856.439C1757.82 856.439 1873.56 1358.8 1146.89 1521.16L1146.94 1521.11Z" fill="#C69C6D"/>
<path d="M1280.99 995.864C1174.1 932.061 1026.87 966.811 1026.87 966.811C1026.87 966.811 876.714 985.458 798.741 1082.46C798.741 1082.46 710.173 1173.66 742.003 1320.81C742.003 1320.81 766.487 1453.54 918.102 1489.24C918.102 1489.24 1008.88 1510.38 1120.94 1490.27C1233.01 1470.17 1310.75 1418.7 1310.75 1418.7C1440.47 1332.53 1417.21 1199.51 1417.21 1199.51C1395.83 1050.48 1281.03 995.769 1281.03 995.769L1280.99 995.864Z" fill="#F8EBC9"/>
<path d="M645.149 1146.49C703.139 1146.49 750.149 1099.48 750.149 1041.49C750.149 983.498 703.139 936.486 645.149 936.486C587.159 936.486 540.148 983.498 540.148 1041.49C540.148 1099.48 587.159 1146.49 645.149 1146.49Z" fill="#534741"/>
<path d="M666.148 1051.14C688.277 1051.14 706.217 1033.2 706.217 1011.07C706.217 988.942 688.277 971.002 666.148 971.002C644.018 971.002 626.078 988.942 626.078 1011.07C626.078 1033.2 644.018 1051.14 666.148 1051.14Z" fill="white"/>
<path d="M1392 1000.01C1449.99 1000.01 1497 952.994 1497 895.003C1497 837.011 1449.99 790 1392 790C1334.01 790 1287 837.011 1287 895.003C1287 952.994 1334.01 1000.01 1392 1000.01Z" fill="#534741"/>
<path d="M1405.39 904.326C1427 904.326 1444.51 886.807 1444.51 865.197C1444.51 843.587 1427 826.068 1405.39 826.068C1383.78 826.068 1366.26 843.587 1366.26 865.197C1366.26 886.807 1383.78 904.326 1405.39 904.326Z" fill="white"/>
<path d="M1143.92 1113.06C1123.44 1062.07 1063.45 1070.97 1047.49 1074.36C1031.29 1076.71 971.967 1089.05 970.319 1144C970.319 1144 968.153 1184.16 1001.87 1209.97C1001.87 1209.97 1025.79 1231.2 1070.23 1225.36V1225.55C1071.65 1225.32 1072.96 1225.03 1074.28 1224.8C1075.6 1224.61 1076.92 1224.37 1078.29 1224.14V1223.95C1117.22 1214.91 1136.06 1187.88 1136.06 1187.88C1159.46 1152.47 1143.92 1113.11 1143.92 1113.11V1113.06Z" fill="#534741"/>
<path d="M381.988 1904.77C447.672 2020.56 448.897 2128.48 393.383 2180.84C327.04 2243.37 197.179 2168.08 131.448 2052.29C65.7641 1936.51 65.9995 1805.89 144.961 1761.06C223.923 1716.29 316.305 1788.99 382.036 1904.77H381.988Z" fill="#B2875B"/>
<path d="M1775.76 1917.44C1720.15 2038.41 1728.11 2146.05 1787.91 2193.46C1859.34 2250.15 1982.32 2164.08 2037.98 2043.11C2093.58 1922.15 2082.28 1792 1999.79 1754.1C1917.3 1716.15 1831.41 1796.47 1775.81 1917.44H1775.76Z" fill="#B2875B"/>
<path d="M1060.67 1373.45C994.002 1373.45 954.686 1341.85 952.755 1340.25C944.704 1333.66 943.574 1321.8 950.166 1313.74C956.758 1305.69 968.623 1304.56 976.675 1311.15C978.417 1312.52 1022.3 1346.85 1097.02 1332.11L1098.81 1331.78C1173.54 1317.04 1201.13 1268.68 1202.26 1266.66C1207.3 1257.62 1218.69 1254.27 1227.78 1259.22C1236.87 1264.16 1240.26 1275.51 1235.36 1284.6C1233.9 1287.28 1199.01 1350.42 1106.06 1368.74L1104.28 1369.07C1088.69 1372.13 1074.09 1373.45 1060.67 1373.45Z" fill="#534741"/>
<path d="M1096.11 1359.81C1087.21 1359.81 1079.3 1353.45 1077.6 1344.36L1048.31 1185.26C1046.43 1175.04 1053.21 1165.2 1063.43 1163.31C1073.69 1161.43 1083.49 1168.21 1085.37 1178.43L1114.66 1337.53C1116.54 1347.75 1109.76 1357.59 1099.54 1359.48C1098.37 1359.66 1097.24 1359.81 1096.11 1359.81Z" fill="#534741"/>
</svg>
